<svg xmlns="http://www.w3.org/2000/svg" viewBox="0 0 71.68 45.55"><defs><style>.cls-1{fill:#b33d24;}</style></defs><title>Google_social</title><g id="Слой_2" data-name="Слой 2"><g id="Google_" data-name="Google+"><path class="cls-1" d="M52.11,19.57l6.5-.05c0-2.16,0-4.34,0-6.5h6.47c0,2.16,0,4.34.05,6.5l6.5.05v6.48l-6.5,0q0,3.26-.05,6.51c-2.16,0-4.32,0-6.48,0,0-2.17,0-4.34,0-6.5l-6.5,0ZM21.61.07A22.74,22.74,0,0,1,38,5.68c-1.86,2-3.75,4.07-5.77,6-4-2.43-8.8-4.27-13.46-2.63C11.2,11.15,6.65,20,9.43,27.4c2.3,7.68,11.66,11.9,19,8.67,3.8-1.36,6.3-4.86,7.4-8.62-4.35-.09-8.7,0-13-.16,0-2.58,0-5.16,0-7.75,7.25,0,14.52,0,21.78,0C45,25.91,44,32.7,39.92,37.79c-5.64,7.26-16.07,9.39-24.55,6.54A22.75,22.75,0,0,1,0,22.81C-.43,11.06,9.85.21,21.61.07Z"/><path class="cls-1" d="M15.37,44.33c8.48,2.85,18.91.72,24.55-6.54C44,32.7,45,25.91,44.53,19.58c-7.26-.07-14.53,0-21.78,0,0,2.59,0,5.17,0,7.75,4.35.12,8.7.07,13.05.16-1.1,3.76-3.6,7.26-7.4,8.62-7.32,3.23-16.68-1-19-8.67C6.65,20,11.2,11.15,18.73,9c4.66-1.64,9.47.2,13.46,2.63,2-1.89,3.91-3.92,5.77-6A22.74,22.74,0,0,0,21.61.07C9.85.21-.43,11.06,0,22.81A22.75,22.75,0,0,0,15.37,44.33Z"/><path class="cls-1" d="M58.65,32.59c2.16,0,4.32,0,6.48,0q0-3.26.05-6.51l6.5,0V19.57l-6.5-.05c0-2.16,0-4.34-.05-6.5H58.66c0,2.16,0,4.34,0,6.5l-6.5.05v6.48l6.5,0C58.63,28.25,58.63,30.42,58.65,32.59Z"/></g></g></svg>