<svg width="20" height="20" viewBox="0 0 20 20" fill="none" xmlns="http://www.w3.org/2000/svg">
<path d="M13.3475 6.38489L13.3439 6.37742L10.6637 0.790066L10.6637 0.790052C10.5919 0.640126 10.4739 0.518846 10.3283 0.445157L10.3283 0.445147C9.96327 0.259849 9.51929 0.414039 9.3364 0.79008C9.3364 0.7901 9.33638 0.79012 9.33638 0.79014L6.65622 6.37742L6.65263 6.38489L6.64444 6.38611L0.648826 7.28213L0.648787 7.28213C0.487058 7.30589 0.339076 7.38431 0.22569 7.50328L0.214379 7.4925M13.3475 6.38489L19.3513 7.28213C19.7558 7.34395 20.0382 7.72919 19.9757 8.1458L19.9757 8.14597C19.9525 8.31258 19.8762 8.46489 19.7605 8.58148L15.4226 12.9304L15.4169 12.9361L15.4182 12.944L16.4431 19.085C16.5126 19.4994 16.2415 19.8918 15.8394 19.9631L15.8394 19.9631C15.6799 19.9916 15.5135 19.9654 15.3703 19.887L15.3702 19.887L10.0075 16.9877L10 16.9837L9.99262 16.9877L4.62986 19.887L4.62984 19.887C4.50778 19.9533 4.37013 19.983 4.23251 19.9729C4.09488 19.9629 3.96272 19.9133 3.85101 19.8299C3.7393 19.7465 3.6525 19.6325 3.60051 19.5008C3.54852 19.3691 3.53345 19.2251 3.55701 19.085L3.55701 19.085L4.58186 12.944L4.58318 12.9361L4.57751 12.9304L0.23961 8.58145C0.0988826 8.44039 0.0182953 8.24756 0.0156902 8.04531C0.013085 7.84305 0.0886779 7.64809 0.225729 7.50324L0.214379 7.4925M13.3475 6.38489L13.3557 6.38611L19.3512 7.28212L13.3475 6.38489ZM0.214379 7.4925C0.0744931 7.64035 -0.00259025 7.83925 6.6464e-05 8.04551C0.00272317 8.25177 0.0849026 8.4485 0.228547 8.59249L4.56645 12.9414M0.214379 7.4925C0.330088 7.37109 0.481218 7.29096 0.646516 7.26667L6.64213 6.37066L9.32232 0.783308L4.56645 12.9414M4.56645 12.9414L3.5416 19.0824C3.51757 19.2253 3.53294 19.3722 3.58598 19.5065C3.63901 19.6409 3.72759 19.7572 3.84166 19.8424C3.95573 19.9276 4.09074 19.9782 4.23137 19.9885C4.37199 19.9988 4.51262 19.9684 4.63729 19.9007L4.56645 12.9414ZM14.4533 17.4498L14.4814 17.465L14.4762 17.4335L13.625 12.3349L17.2276 8.72493L17.2494 8.70302L17.2188 8.69844L12.2397 7.9542L10.0141 3.31647L10 3.28712L9.98596 3.31647L7.76038 7.9542L2.78128 8.69844L2.75067 8.70302L2.77253 8.72493L6.37508 12.3373L5.52394 17.4359L5.51868 17.4675L5.54678 17.4523L10.0001 15.045L14.4533 17.4498Z" fill="#3E4551" stroke="black" stroke-width="0.03125"/>
</svg>
