<svg width="21" height="21" viewBox="0 0 21 21" fill="none" xmlns="http://www.w3.org/2000/svg">
<path fill-rule="evenodd" clip-rule="evenodd" d="M10.5 0C4.70085 0 0 4.82001 0 10.7662C0 15.5226 3.00825 19.5578 7.18095 20.9822C7.70595 21.0812 7.89705 20.7485 7.89705 20.4632C7.89705 20.2081 7.88865 19.5309 7.8834 18.633C4.9623 19.2833 4.34595 17.1892 4.34595 17.1892C3.86925 15.9457 3.18045 15.6142 3.18045 15.6142C2.22705 14.9466 3.2529 14.9596 3.2529 14.9596C4.30605 15.0349 4.86045 16.0685 4.86045 16.0685C5.79705 17.7146 7.3185 17.2388 7.91595 16.9632C8.01255 16.2677 8.28345 15.7939 8.58375 15.5248C6.25275 15.2524 3.801 14.3297 3.801 10.2031C3.801 9.0285 4.2105 8.06708 4.88145 7.31452C4.7733 7.04214 4.41315 5.94722 4.98435 4.46472C4.98435 4.46472 5.86635 4.17619 7.87185 5.56933C8.72844 5.32997 9.61217 5.20797 10.5 5.20651C11.3882 5.20803 12.2722 5.33003 13.1292 5.56933C15.1336 4.17619 16.0135 4.46472 16.0135 4.46472C16.5868 5.94722 16.2256 7.04214 16.1185 7.31452C16.7905 8.06708 17.1979 9.0285 17.1979 10.2031C17.1979 14.3394 14.742 15.2492 12.4036 15.5162C12.7806 15.8489 13.1156 16.5056 13.1156 17.5101C13.1156 18.9495 13.1029 20.1101 13.1029 20.4632C13.1029 20.7507 13.2919 21.0855 13.8253 20.98C17.9938 19.5546 21 15.5216 21 10.7672C21 4.82001 16.2981 0 10.5 0Z" fill="white"/>
</svg>
