<svg width="20" height="22" viewBox="0 0 20 22" fill="none" xmlns="http://www.w3.org/2000/svg">
<path d="M6.64222 15.824C6.64243 15.8126 6.64317 15.8012 6.64444 15.7899L6.64222 15.824ZM6.64333 15.6514C6.6437 15.6524 6.64407 15.6534 6.64444 15.6545V15.6514H6.64333ZM6.68778 17.6153C9.66333 15.0704 10.0289 14.8699 10.9022 14.7893C14.8489 14.4244 17.7778 11.7317 17.7778 8.62451C17.7778 5.25477 14.35 2.41943 10 2.41943C5.65 2.41943 2.22222 5.2558 2.22222 8.62451C2.22222 10.5812 3.52778 12.5183 5.61556 13.7484C6.48556 14.26 6.68 14.903 6.66111 15.5862C6.65942 15.638 6.65608 15.6897 6.65111 15.7413C6.67556 16.0824 6.68667 16.6923 6.68778 17.6163V17.6153ZM11.1211 16.8473C10.9156 16.8659 9.31556 18.1663 6.32111 20.7483C6.16199 20.8857 5.96312 20.9766 5.74906 21.0099C5.53501 21.0433 5.31514 21.0176 5.11661 20.936C4.91807 20.8545 4.74956 20.7206 4.63189 20.5509C4.51422 20.3813 4.45253 20.1833 4.45444 19.9814C4.47667 17.5399 4.46667 16.1475 4.42778 15.8054C4.40778 15.6265 4.46333 15.5159 4.42778 15.4953C1.89778 14.0078 0 11.4888 0 8.62555C0 4.05572 4.47778 0.351074 10 0.351074C15.5222 0.351074 20 4.05572 20 8.62451C20 12.8801 16.1167 16.3863 11.1222 16.8473H11.1211Z" fill="#3E4551"/>
</svg>
