<svg width="20" height="20" viewBox="0 0 20 20" fill="none" xmlns="http://www.w3.org/2000/svg">
<path d="M10 0C4.477 0 0 4.477 0 10C0 15.523 4.477 20 10 20C15.523 20 20 15.523 20 10C20 4.477 15.523 0 10 0ZM3.506 6.5H4.979C5.355 6.5 5.497 6.664 5.639 7.072C6.359 9.172 7.575 11.008 8.074 11.008C8.262 11.008 8.348 10.921 8.348 10.445V8.275C8.293 7.276 7.762 7.193 7.762 6.838C7.762 6.673 7.902 6.5 8.137 6.5H10.453C10.765 6.5 10.869 6.666 10.869 7.041V9.961C10.869 10.273 11.009 10.383 11.104 10.383C11.291 10.383 11.446 10.273 11.789 9.93C12.851 8.743 13.602 6.916 13.602 6.916C13.695 6.697 13.867 6.5 14.242 6.5H15.715C16.16 6.5 16.255 6.729 16.162 7.041C15.975 7.9 14.178 10.43 14.178 10.43C14.022 10.68 13.959 10.805 14.178 11.086C14.334 11.305 14.85 11.741 15.193 12.146C15.826 12.859 16.303 13.459 16.435 13.873C16.557 14.288 16.347 14.5 15.925 14.5H14.453C13.891 14.5 13.726 14.052 12.727 13.053C11.852 12.21 11.478 12.1 11.26 12.1C10.963 12.1 10.873 12.184 10.873 12.605V13.928C10.873 14.29 10.757 14.5 9.82 14.5C8.259 14.5 6.544 13.551 5.326 11.803C3.5 9.243 3 7.306 3 6.916C3 6.697 3.085 6.5 3.506 6.5Z" fill="white"/>
</svg>
