<svg width="25" height="19" viewBox="0 0 25 19" fill="none" xmlns="http://www.w3.org/2000/svg">
<path d="M24.8919 4.46425C24.8919 3.42854 24.5327 2.55354 23.8143 1.83925C23.0959 1.12497 22.2339 0.767822 21.2281 0.767822H3.77121C2.76547 0.767822 1.9034 1.12497 1.18501 1.83925C0.466617 2.55354 0.107422 3.42854 0.107422 4.46425V14.375C0.107422 15.4107 0.466617 16.2857 1.18501 17C1.9034 17.7143 2.76547 18.0714 3.77121 18.0714H21.2281C22.2339 18.0714 23.0959 17.7143 23.8143 17C24.5327 16.2857 24.8919 15.4107 24.8919 14.375V4.46425ZM10.0212 13.625V4.30354L17.1333 8.96425L10.0212 13.625Z" fill="white"/>
</svg>
