<?xml version="1.0" encoding="UTF-8"?>
<svg xmlns="http://www.w3.org/2000/svg" xmlns:xlink="http://www.w3.org/1999/xlink" width="24pt" height="24pt" viewBox="0 0 24 24" version="1.1">
<g id="surface1556431">
<path style=" stroke:none;fill-rule:nonzero;fill:rgb(96.078431%,0.392157%,0.784314%);fill-opacity:1;" d="M 5.679688 2 L 7.160156 7.34375 L 7.160156 9.90625 L 8.441406 9.90625 L 8.441406 7.34375 L 9.9375 2 L 8.644531 2 L 8.109375 4.433594 C 7.957031 5.140625 7.863281 5.644531 7.820312 5.949219 L 7.78125 5.949219 C 7.714844 5.527344 7.621094 5.019531 7.488281 4.421875 L 6.972656 2 Z M 11.433594 4.015625 C 10.996094 4.015625 10.648438 4.101562 10.382812 4.277344 C 10.113281 4.449219 9.917969 4.722656 9.792969 5.097656 C 9.667969 5.476562 9.605469 5.976562 9.605469 6.597656 L 9.605469 7.4375 C 9.605469 8.050781 9.65625 8.546875 9.769531 8.914062 C 9.878906 9.285156 10.0625 9.558594 10.324219 9.738281 C 10.585938 9.914062 10.945312 10 11.402344 10 C 11.847656 10 12.203125 9.914062 12.464844 9.742188 C 12.722656 9.566406 12.910156 9.296875 13.027344 8.921875 C 13.144531 8.546875 13.203125 8.054688 13.203125 7.4375 L 13.203125 6.597656 C 13.203125 5.976562 13.140625 5.480469 13.023438 5.105469 C 12.90625 4.734375 12.714844 4.457031 12.457031 4.28125 C 12.199219 4.105469 11.859375 4.019531 11.433594 4.019531 Z M 13.878906 4.128906 L 13.878906 8.445312 C 13.878906 8.980469 13.96875 9.371094 14.148438 9.625 C 14.332031 9.875 14.613281 10 14.996094 10 C 15.550781 10 15.964844 9.734375 16.242188 9.199219 L 16.269531 9.199219 L 16.382812 9.90625 L 17.402344 9.90625 L 17.402344 4.132812 L 16.101562 4.132812 L 16.101562 8.71875 C 16.050781 8.824219 15.976562 8.914062 15.871094 8.984375 C 15.765625 9.050781 15.660156 9.085938 15.546875 9.085938 C 15.414062 9.085938 15.320312 9.03125 15.265625 8.921875 C 15.207031 8.8125 15.175781 8.628906 15.175781 8.371094 L 15.175781 4.132812 Z M 11.402344 4.910156 C 11.585938 4.910156 11.714844 5.007812 11.785156 5.199219 C 11.855469 5.390625 11.894531 5.695312 11.894531 6.109375 L 11.894531 7.910156 C 11.894531 8.335938 11.855469 8.644531 11.785156 8.832031 C 11.714844 9.019531 11.585938 9.113281 11.40625 9.117188 C 11.222656 9.117188 11.097656 9.019531 11.027344 8.832031 C 10.957031 8.644531 10.925781 8.335938 10.925781 7.910156 L 10.925781 6.109375 C 10.925781 5.695312 10.960938 5.390625 11.03125 5.199219 C 11.101562 5.007812 11.226562 4.910156 11.402344 4.910156 Z M 5 11 C 3.898438 11 3 11.898438 3 13 L 3 20 C 3 21.101562 3.898438 22 5 22 L 19 22 C 20.101562 22 21 21.101562 21 20 L 21 13 C 21 11.898438 20.101562 11 19 11 Z M 12.046875 13 L 13.105469 13 L 13.105469 15.566406 L 13.113281 15.566406 C 13.207031 15.382812 13.34375 15.234375 13.519531 15.117188 C 13.695312 15.003906 13.882812 14.949219 14.085938 14.949219 C 14.347656 14.949219 14.550781 15.019531 14.695312 15.15625 C 14.84375 15.292969 14.953125 15.515625 15.019531 15.824219 C 15.085938 16.132812 15.117188 16.558594 15.117188 17.105469 L 15.117188 17.875 L 15.121094 17.875 C 15.121094 18.605469 15.03125 19.136719 14.855469 19.480469 C 14.679688 19.820312 14.40625 19.992188 14.039062 19.992188 C 13.832031 19.992188 13.644531 19.945312 13.472656 19.847656 C 13.300781 19.753906 13.175781 19.625 13.089844 19.457031 L 13.066406 19.457031 L 12.957031 19.917969 L 12.050781 19.917969 Z M 5.484375 13.246094 L 8.738281 13.246094 L 8.738281 14.132812 L 7.648438 14.132812 L 7.648438 19.917969 L 6.574219 19.917969 L 6.574219 14.132812 L 5.484375 14.132812 Z M 17.097656 14.953125 C 17.472656 14.953125 17.761719 15.019531 17.964844 15.160156 C 18.164062 15.296875 18.308594 15.511719 18.390625 15.804688 C 18.472656 16.09375 18.515625 16.496094 18.515625 17.011719 L 18.515625 17.847656 L 16.675781 17.847656 L 16.675781 18.09375 C 16.675781 18.410156 16.6875 18.644531 16.707031 18.796875 C 16.722656 18.953125 16.761719 19.070312 16.820312 19.140625 C 16.878906 19.210938 16.96875 19.25 17.089844 19.25 C 17.253906 19.25 17.367188 19.183594 17.429688 19.058594 C 17.488281 18.929688 17.523438 18.71875 17.527344 18.421875 L 18.476562 18.476562 C 18.480469 18.519531 18.484375 18.578125 18.484375 18.652344 C 18.484375 19.101562 18.359375 19.441406 18.109375 19.660156 C 17.863281 19.886719 17.515625 19.996094 17.066406 19.996094 C 16.527344 19.996094 16.144531 19.824219 15.925781 19.488281 C 15.710938 19.148438 15.601562 18.625 15.601562 17.914062 L 15.601562 17.0625 C 15.601562 16.328125 15.714844 15.792969 15.9375 15.457031 C 16.164062 15.121094 16.550781 14.953125 17.097656 14.953125 Z M 8.410156 15.042969 L 9.507812 15.042969 L 9.507812 18.625 C 9.507812 18.84375 9.535156 18.996094 9.582031 19.089844 C 9.628906 19.183594 9.707031 19.230469 9.820312 19.230469 C 9.914062 19.230469 10.007812 19.199219 10.09375 19.140625 C 10.183594 19.082031 10.246094 19.007812 10.289062 18.917969 L 10.289062 15.042969 L 11.386719 15.042969 L 11.386719 19.917969 L 10.527344 19.917969 L 10.433594 19.324219 L 10.40625 19.324219 C 10.175781 19.773438 9.824219 20 9.355469 20 C 9.035156 20 8.796875 19.894531 8.640625 19.683594 C 8.488281 19.46875 8.410156 19.136719 8.410156 18.6875 Z M 17.074219 15.691406 C 16.957031 15.691406 16.871094 15.730469 16.8125 15.796875 C 16.757812 15.867188 16.722656 15.980469 16.703125 16.132812 C 16.683594 16.289062 16.675781 16.527344 16.675781 16.84375 L 16.675781 17.195312 L 17.476562 17.195312 L 17.476562 16.84375 C 17.476562 16.53125 17.46875 16.296875 17.445312 16.132812 C 17.425781 15.972656 17.386719 15.859375 17.332031 15.792969 C 17.277344 15.726562 17.191406 15.691406 17.074219 15.691406 Z M 13.59375 15.730469 C 13.484375 15.730469 13.390625 15.769531 13.300781 15.855469 C 13.207031 15.941406 13.144531 16.050781 13.109375 16.183594 L 13.109375 18.949219 C 13.15625 19.035156 13.21875 19.097656 13.296875 19.140625 C 13.371094 19.183594 13.453125 19.203125 13.546875 19.203125 C 13.660156 19.203125 13.753906 19.164062 13.824219 19.078125 C 13.890625 18.992188 13.941406 18.851562 13.972656 18.648438 C 14 18.449219 14.015625 18.167969 14.015625 17.8125 L 14.015625 17.1875 C 14.015625 16.804688 14.003906 16.507812 13.980469 16.300781 C 13.953125 16.097656 13.910156 15.945312 13.851562 15.859375 C 13.789062 15.773438 13.703125 15.730469 13.59375 15.730469 Z M 13.59375 15.730469 "/>
</g>
</svg>
